<svg width="128" height="29" viewBox="0 0 128 29" fill="none" xmlns="http://www.w3.org/2000/svg">
<mask id="mask0_171_650" style="mask-type:luminance" maskUnits="userSpaceOnUse" x="89" y="0" width="39" height="29">
<path d="M110.82 0H123.977C125.423 0 126.757 0.765882 127.471 2.00268C128.188 3.23947 128.175 4.76089 127.44 5.98474L117.208 23.0153C114.979 26.7231 110.931 29 106.554 29H93.3975C91.9535 29 90.6171 28.2341 89.903 26.9973C89.1862 25.7605 89.1993 24.2391 89.9371 23.0153L100.166 5.98474C102.395 2.27695 106.446 0 110.82 0Z" fill="white"/>
</mask>
<g mask="url(#mask0_171_650)">
<path d="M86.3401 0H131.052V29H86.3401V0Z" fill="white"/>
</g>
<path d="M6.95231 7.32764C9.26799 7.32764 11.0087 8.02883 12.1718 9.42864C13.3323 10.831 13.8416 12.7509 13.6946 15.1934H4.30581C4.5211 15.9749 4.89917 16.5777 5.44002 17.0047C5.98613 17.4264 6.65825 17.636 7.4564 17.636C8.67463 17.636 9.73796 17.1884 10.649 16.2905L12.9069 18.464C11.4629 20.0113 9.52004 20.7823 7.07833 20.7823C4.91492 20.7823 3.1926 20.1717 1.91136 18.9504C0.63537 17.7291 0 16.112 0 14.0964C0 12.0626 0.63537 10.4274 1.91136 9.19059C3.1926 7.94862 4.87292 7.32764 6.95231 7.32764ZM4.2323 12.9269H9.5883C9.5883 12.1273 9.34938 11.4831 8.87417 10.9914C8.40421 10.5024 7.78196 10.2566 7.00482 10.2566C6.27493 10.2566 5.66319 10.4998 5.16697 10.9811C4.676 11.4649 4.36357 12.1144 4.2323 12.9269Z" fill="white"/>
<path d="M19.3944 7.28662C21.3609 7.28662 23.1961 7.78341 24.8974 8.77699L23.4377 11.5093C21.7836 10.627 20.3816 10.1846 19.2264 10.1846C18.3495 10.1846 17.9136 10.4899 17.9136 11.0953C17.9136 11.4213 18.1499 11.693 18.6278 11.913C19.103 12.1355 19.6885 12.3347 20.3816 12.5132C21.0747 12.6866 21.7626 12.9065 22.4505 13.1756C23.1357 13.4447 23.716 13.8742 24.1938 14.459C24.6769 15.0463 24.9184 15.7631 24.9184 16.6117C24.9184 17.9313 24.396 18.9611 23.3536 19.7063C22.3166 20.4463 20.9644 20.8137 19.2999 20.8137C16.9317 20.8137 14.9337 20.1928 13.3033 18.9508L14.658 16.2702C16.2333 17.3621 17.8112 17.9055 19.3944 17.9055C20.3658 17.9055 20.8542 17.6053 20.8542 17.005C20.8542 16.6609 20.6179 16.3737 20.1505 16.146C19.6806 15.9183 19.1056 15.7165 18.4282 15.5354C17.7482 15.3568 17.0682 15.1317 16.3908 14.8626C15.7187 14.5935 15.1437 14.177 14.6685 13.6103C14.1985 13.0385 13.9649 12.3218 13.9649 11.4576C13.9649 10.1406 14.469 9.11594 15.4772 8.38369C16.4854 7.65404 17.7902 7.28662 19.3944 7.28662Z" fill="white"/>
<path d="M34.3048 7.32764C36.1873 7.32764 37.7022 7.9538 38.8521 9.20094C39.9995 10.4429 40.5745 12.0833 40.5745 14.1171C40.5745 16.1198 40.01 17.7291 38.8836 18.9504C37.7626 20.1717 36.2713 20.7823 34.4098 20.7823C32.6586 20.7823 31.296 20.1484 30.3245 18.878V25.3776H26.0397V7.48288H30.3245V9.21129C31.3117 7.95638 32.6376 7.32764 34.3048 7.32764ZM33.2651 17.4393C34.1604 17.4393 34.885 17.1185 35.439 16.4768C35.9904 15.8351 36.2687 15.0123 36.2687 14.0032C36.2687 12.989 35.9904 12.1661 35.439 11.5296C34.885 10.8957 34.1604 10.5775 33.2651 10.5775C32.4092 10.5775 31.7055 10.8957 31.1542 11.5296C30.6002 12.1661 30.3245 12.9864 30.3245 13.9929C30.3245 15.0227 30.5923 15.8532 31.1332 16.4872C31.6793 17.1237 32.3882 17.4393 33.2651 17.4393Z" fill="white"/>
<path d="M47.669 7.32764C49.8456 7.32764 51.602 7.94603 52.941 9.18024C54.2774 10.4093 54.9469 12.0342 54.9469 14.055C54.9469 16.0706 54.2774 17.6955 52.941 18.9297C51.602 20.1665 49.8456 20.7823 47.669 20.7823C45.4689 20.7823 43.7019 20.1665 42.3655 18.9297C41.0265 17.6955 40.3596 16.0706 40.3596 14.055C40.3596 12.0342 41.0265 10.4093 42.3655 9.18024C43.7019 7.94603 45.4689 7.32764 47.669 7.32764ZM47.669 10.681C46.7711 10.681 46.0465 10.9992 45.4951 11.6331C44.9411 12.2696 44.6655 13.0899 44.6655 14.0964C44.6655 15.1184 44.9411 15.9438 45.4951 16.57C46.0465 17.1987 46.7711 17.5118 47.669 17.5118C48.5433 17.5118 49.2574 17.1987 49.8114 16.57C50.3628 15.9438 50.6411 15.1184 50.6411 14.0964C50.6411 13.0899 50.3628 12.2696 49.8114 11.6331C49.2574 10.9992 48.5433 10.681 47.669 10.681Z" fill="white"/>
<path d="M60.1276 7.48327V9.69811C61.0649 8.11978 62.5116 7.31508 64.4649 7.28662V11.0953C63.2388 10.9789 62.2385 11.1781 61.4614 11.6956C60.6842 12.2079 60.2379 12.935 60.1276 13.8794V20.6378H55.8428V7.48327H60.1276Z" fill="white"/>
<path d="M72.7812 17.0051L73.6319 19.9341C72.5869 20.5344 71.3976 20.8345 70.0612 20.8345C68.738 20.8345 67.6668 20.4723 66.8476 19.7478C66.0337 19.0233 65.6294 17.9935 65.6294 16.6532V10.847H63.7705V8.08364H65.6294V4.43018H69.8827V8.06294H73.3798V10.847H69.8827V16.0012C69.8827 16.5057 69.9825 16.8758 70.1872 17.1086C70.3973 17.3441 70.7071 17.4553 71.1219 17.4398C71.521 17.4398 72.0724 17.2949 72.7812 17.0051Z" fill="white"/>
<path d="M80.2141 7.32764C82.5297 7.32764 84.2704 8.02883 85.4335 9.42864C86.594 10.831 87.1034 12.7509 86.9563 15.1934H77.5676C77.7829 15.9749 78.1609 16.5777 78.7018 17.0047C79.2479 17.4264 79.92 17.636 80.7182 17.636C81.9364 17.636 82.9997 17.1884 83.9108 16.2905L86.1687 18.464C84.7247 20.0113 82.7818 20.7823 80.3401 20.7823C78.1767 20.7823 76.4543 20.1717 75.1731 18.9504C73.8971 17.7291 73.2617 16.112 73.2617 14.0964C73.2617 12.0626 73.8971 10.4274 75.1731 9.19059C76.4543 7.94862 78.1347 7.32764 80.2141 7.32764ZM77.494 12.9269H82.8501C82.8501 12.1273 82.6111 11.4831 82.1359 10.9914C81.666 10.5024 81.0437 10.2566 80.2666 10.2566C79.5367 10.2566 78.9249 10.4998 78.4287 10.9811C77.9378 11.4649 77.6253 12.1144 77.494 12.9269Z" fill="white"/>
<path d="M92.6561 7.28662C94.6226 7.28662 96.4578 7.78341 98.1591 8.77699L96.6993 11.5093C95.0453 10.627 93.6433 10.1846 92.4881 10.1846C91.6111 10.1846 91.1753 10.4899 91.1753 11.0953C91.1753 11.4213 91.4116 11.693 91.8894 11.913C92.3647 12.1355 92.9501 12.3347 93.6433 12.5132C94.3364 12.6866 95.0243 12.9065 95.7122 13.1756C96.3974 13.4447 96.9776 13.8742 97.4555 14.459C97.9386 15.0463 98.1801 15.7631 98.1801 16.6117C98.1801 17.9313 97.6576 18.9611 96.6153 19.7063C95.5783 20.4463 94.2261 20.8137 92.5616 20.8137C90.1934 20.8137 88.1954 20.1928 86.5649 18.9508L87.9197 16.2702C89.495 17.3621 91.0729 17.9055 92.6561 17.9055C93.6275 17.9055 94.1159 17.6053 94.1159 17.005C94.1159 16.6609 93.8796 16.3737 93.4122 16.146C92.9423 15.9183 92.3673 15.7165 91.6899 15.5354C91.0099 15.3568 90.3299 15.1317 89.6525 14.8626C88.9804 14.5935 88.4054 14.177 87.9302 13.6103C87.4602 13.0385 87.2266 12.3218 87.2266 11.4576C87.2266 10.1406 87.7307 9.11594 88.7388 8.38369C89.747 7.65404 91.0519 7.28662 92.6561 7.28662Z" fill="white"/>
<path d="M111.776 15.4835H107.617V19.5923H104.918V15.4835H100.78V12.8236H104.918V8.7251H107.617V12.8236H111.776V15.4835Z" fill="black"/>
</svg>
