<svg width="160" height="36" viewBox="0 0 160 36" fill="none" xmlns="http://www.w3.org/2000/svg">
<mask id="mask0_96_836" style="mask-type:luminance" maskUnits="userSpaceOnUse" x="111" y="0" width="49" height="36">
<path d="M138.525 0H154.971C156.779 0 158.446 0.95075 159.339 2.48608C160.235 4.02141 160.219 5.91006 159.3 7.42934L146.51 28.5707C143.724 33.1734 138.663 36 133.192 36H116.747C114.942 36 113.271 35.0493 112.379 33.5139C111.483 31.9786 111.499 30.0899 112.421 28.5707L125.208 7.42934C127.994 2.82655 133.058 0 138.525 0Z" fill="white"/>
</mask>
<g mask="url(#mask0_96_836)">
<path d="M107.925 0H163.815V36H107.925V0Z" fill="#1D1D1D"/>
</g>
<path d="M8.69038 9.09656C11.585 9.09656 13.7609 9.96701 15.2147 11.7047C16.6653 13.4456 17.302 15.8289 17.1182 18.861H5.38226C5.65138 19.831 6.12396 20.5794 6.80003 21.1094C7.48266 21.633 8.32281 21.8931 9.3205 21.8931C10.8433 21.8931 12.1724 21.3375 13.3113 20.2229L16.1337 22.921C14.3286 24.8417 11.9001 25.7989 8.84791 25.7989C6.14366 25.7989 3.99075 25.0409 2.3892 23.5248C0.794212 22.0088 0 20.0013 0 17.4991C0 14.9745 0.794212 12.9445 2.3892 11.4092C3.99075 9.86744 6.09115 9.09656 8.69038 9.09656ZM5.29037 16.0473H11.9854C11.9854 15.0548 11.6867 14.255 11.0927 13.6447C10.5053 13.0377 9.72745 12.7325 8.75602 12.7325C7.84366 12.7325 7.07899 13.0345 6.45871 13.6319C5.84501 14.2325 5.45446 15.0387 5.29037 16.0473Z" fill="#1D1D1D"/>
<path d="M24.243 9.04524C26.7011 9.04524 28.9951 9.66194 31.1218 10.8953L29.2971 14.2872C27.2295 13.1919 25.477 12.6427 24.033 12.6427C22.9368 12.6427 22.392 13.0217 22.392 13.7733C22.392 14.178 22.6874 14.5153 23.2847 14.7883C23.8787 15.0645 24.6106 15.3118 25.477 15.5335C26.3434 15.7487 27.2032 16.0217 28.0631 16.3557C28.9197 16.6898 29.6449 17.223 30.2422 17.9489C30.8461 18.678 31.148 19.5677 31.148 20.6213C31.148 22.2594 30.4949 23.5377 29.192 24.4628C27.8957 25.3814 26.2055 25.8375 24.1248 25.8375C21.1646 25.8375 18.6671 25.0667 16.6291 23.5249L18.3225 20.1973C20.2916 21.5527 22.264 22.2273 24.243 22.2273C25.4573 22.2273 26.0677 21.8547 26.0677 21.1095C26.0677 20.6823 25.7723 20.3258 25.1882 20.0431C24.6007 19.7604 23.882 19.5099 23.0353 19.2851C22.1853 19.0634 21.3353 18.784 20.4885 18.45C19.6484 18.1159 18.9296 17.5988 18.3356 16.8953C17.7482 16.1855 17.4561 15.2958 17.4561 14.223C17.4561 12.5881 18.0862 11.3161 19.3464 10.4071C20.6067 9.50135 22.2378 9.04524 24.243 9.04524Z" fill="#1D1D1D"/>
<path d="M42.881 9.09656C45.2341 9.09656 47.1277 9.87386 48.5652 11.422C49.9994 12.9638 50.7181 15.0002 50.7181 17.5248C50.7181 20.0109 50.0125 22.0088 48.6046 23.5248C47.2032 25.0409 45.3391 25.7989 43.0123 25.7989C40.8233 25.7989 39.12 25.012 37.9057 23.4349V31.5034H32.5497V9.28928H37.9057V11.4349C39.1397 9.87707 40.797 9.09656 42.881 9.09656ZM41.5814 21.649C42.7005 21.649 43.6063 21.2507 44.2988 20.4542C44.988 19.6576 45.3358 18.6362 45.3358 17.3835C45.3358 16.1244 44.988 15.103 44.2988 14.3128C43.6063 13.5259 42.7005 13.1308 41.5814 13.1308C40.5115 13.1308 39.632 13.5259 38.9428 14.3128C38.2503 15.103 37.9057 16.1212 37.9057 17.3706C37.9057 18.649 38.2404 19.6801 38.9165 20.467C39.5991 21.2572 40.4852 21.649 41.5814 21.649Z" fill="#1D1D1D"/>
<path d="M59.5863 9.09656C62.307 9.09656 64.5025 9.86422 66.1763 11.3963C67.8468 12.922 68.6836 14.9392 68.6836 17.4477C68.6836 19.9499 67.8468 21.967 66.1763 23.4991C64.5025 25.0345 62.307 25.7989 59.5863 25.7989C56.8361 25.7989 54.6274 25.0345 52.9569 23.4991C51.2832 21.967 50.4496 19.9499 50.4496 17.4477C50.4496 14.9392 51.2832 12.922 52.9569 11.3963C54.6274 9.86422 56.8361 9.09656 59.5863 9.09656ZM59.5863 13.2593C58.4639 13.2593 57.5581 13.6544 56.8689 14.4413C56.1764 15.2315 55.8318 16.2497 55.8318 17.4991C55.8318 18.7679 56.1764 19.7925 56.8689 20.5698C57.5581 21.3503 58.4639 21.739 59.5863 21.739C60.6792 21.739 61.5718 21.3503 62.2643 20.5698C62.9535 19.7925 63.3014 18.7679 63.3014 17.4991C63.3014 16.2497 62.9535 15.2315 62.2643 14.4413C61.5718 13.6544 60.6792 13.2593 59.5863 13.2593Z" fill="#1D1D1D"/>
<path d="M75.1595 9.28935V12.0388C76.3311 10.0795 78.1394 9.08057 80.5811 9.04524V13.7733C79.0485 13.6288 77.7981 13.8761 76.8267 14.5185C75.8553 15.1545 75.2973 16.057 75.1595 17.2294V25.6191H69.8035V9.28935H75.1595Z" fill="#1D1D1D"/>
<path d="M90.9766 21.1095L92.0399 24.7455C90.7337 25.4907 89.247 25.8633 87.5765 25.8633C85.9225 25.8633 84.5835 25.4136 83.5595 24.5142C82.5422 23.6149 82.0368 22.3365 82.0368 20.6727V13.465H79.7132V10.0346H82.0368V5.49925H87.3534V10.0089H91.7248V13.465H87.3534V19.8633C87.3534 20.4896 87.4781 20.9489 87.7341 21.238C87.9966 21.5303 88.3839 21.6684 88.9024 21.6491C89.4013 21.6491 90.0905 21.4693 90.9766 21.1095Z" fill="#1D1D1D"/>
<path d="M100.268 9.09656C103.162 9.09656 105.338 9.96701 106.792 11.7047C108.243 13.4456 108.879 15.8289 108.695 18.861H96.9595C97.2286 19.831 97.7012 20.5794 98.3772 21.1094C99.0599 21.633 99.9 21.8931 100.898 21.8931C102.42 21.8931 103.75 21.3375 104.888 20.2229L107.711 22.921C105.906 24.8417 103.477 25.7989 100.425 25.7989C97.7209 25.7989 95.568 25.0409 93.9664 23.5248C92.3714 22.0088 91.5772 20.0013 91.5772 17.4991C91.5772 14.9745 92.3714 12.9445 93.9664 11.4092C95.568 9.86744 97.6684 9.09656 100.268 9.09656ZM96.8676 16.0473H103.563C103.563 15.0548 103.264 14.255 102.67 13.6447C102.082 13.0377 101.305 12.7325 100.333 12.7325C99.4209 12.7325 98.6562 13.0345 98.0359 13.6319C97.4222 14.2325 97.0317 15.0387 96.8676 16.0473Z" fill="#1D1D1D"/>
<path d="M115.82 9.04524C118.278 9.04524 120.572 9.66194 122.699 10.8953L120.874 14.2872C118.807 13.1919 117.054 12.6427 115.61 12.6427C114.514 12.6427 113.969 13.0217 113.969 13.7733C113.969 14.178 114.265 14.5153 114.862 14.7883C115.456 15.0645 116.188 15.3118 117.054 15.5335C117.921 15.7487 118.78 16.0217 119.64 16.3557C120.497 16.6898 121.222 17.223 121.819 17.9489C122.423 18.678 122.725 19.5677 122.725 20.6213C122.725 22.2594 122.072 23.5377 120.769 24.4628C119.473 25.3814 117.783 25.8375 115.702 25.8375C112.742 25.8375 110.244 25.0667 108.206 23.5249L109.9 20.1973C111.869 21.5527 113.841 22.2273 115.82 22.2273C117.034 22.2273 117.645 21.8547 117.645 21.1095C117.645 20.6823 117.349 20.3258 116.765 20.0431C116.178 19.7604 115.459 19.5099 114.612 19.2851C113.762 19.0634 112.912 18.784 112.066 18.45C111.225 18.1159 110.507 17.5988 109.913 16.8953C109.325 16.1855 109.033 15.2958 109.033 14.223C109.033 12.5881 109.663 11.3161 110.924 10.4071C112.184 9.50135 113.815 9.04524 115.82 9.04524Z" fill="#1D1D1D"/>
<path d="M139.72 19.2209H134.521V24.3215H131.148V19.2209H125.975V15.9189H131.148V10.8311H134.521V15.9189H139.72V19.2209Z" fill="white"/>
</svg>
