<svg width="300" height="149" viewBox="0 0 300 149" fill="none" xmlns="http://www.w3.org/2000/svg">
<rect x="149" width="1" height="148" fill="#EDEDED"/>
<rect width="1" height="300" transform="matrix(0 1 1 0 0 80)" fill="#EDEDED"/>
<path d="M42.8905 32.7762L42.8557 24.4707L51.1093 21.5207L42.7973 18.8979L42.6231 10.7148L37.5809 17.3173L29.3328 14.8674L34.1206 21.7982L29.4472 28.7417L37.5879 26.1424L42.8905 32.7762Z" fill="#9C9C9C"/>
<path d="M43.9213 41.507H58.705L77.2336 21.7656L58.6157 2H43.9744L61.3873 21.7365L43.9213 41.507Z" fill="#9C9C9C"/>
<path d="M11 52.1333C11 49.5679 13.2512 47.0449 16.328 47.0449C18.4237 47.0449 20.7756 49.3213 20.7756 49.3213L18.2275 50.7497C18.2275 50.7497 17.8066 49.6784 16.2354 49.6784C14.6381 49.6784 13.6982 50.942 13.6872 52.0888C13.6749 53.3707 14.7658 54.4991 16.1427 54.4991C17.2231 54.4991 18.3665 53.3832 18.3665 53.3832L20.5441 54.9008C20.5441 54.9008 18.9146 56.8202 16.1891 56.8202C13.4579 56.8202 11 55.2335 11 52.1333Z" fill="#9C9C9C"/>
<path fill-rule="evenodd" clip-rule="evenodd" d="M26.8871 47.1748C24.0213 47.1748 21.7023 49.3801 21.7023 52.0919C21.7023 54.8036 24.0213 57.0002 26.8871 57.0002C29.7529 57.0002 32.0809 54.8036 32.0809 52.0919C32.0809 49.3801 29.7529 47.1748 26.8871 47.1748ZM26.8871 49.6334C28.32 49.6334 29.484 50.736 29.484 52.0919C29.484 53.4477 28.32 54.5417 26.8871 54.5417C25.4543 54.5417 24.2992 53.4477 24.2992 52.0919C24.2992 50.736 25.4543 49.6334 26.8871 49.6334ZM34.0286 47.3139V56.505H36.5264V51.5375L40.6472 56.505H43.1088V47.3139H40.6021V52.6852L36.5264 47.3139H34.0286ZM45.1466 47.3139L48.519 56.505H52.2341L55.6065 47.3139H52.8742L50.3765 54.6112L47.8788 47.3139H45.1466ZM57.4008 47.3139V56.505H65.0744V54.3853H59.8985V52.8477H64.5514V50.9712H59.8985V49.503H65.0744V47.3138L57.4008 47.3139ZM88.3265 47.3139V56.505H96V54.3853H90.8242V52.8477H95.4771V50.9712H90.8242V49.503H96V47.3138L88.3265 47.3139ZM67.8967 47.4876V56.5484H70.1149V52.978H71.3863L73.334 56.5484H76.1924L74.2628 52.6739C76.7716 51.2247 76.2749 48.1913 73.4782 47.4876H67.8967ZM70.0698 49.6768H72.6307C73.5205 49.6768 73.4627 51.0059 72.6307 51.0059H70.0698V49.6768Z" fill="#9C9C9C"/>
<path d="M77.5253 55.2786C77.6236 55.8468 79.9484 56.9199 82.2428 56.9199C84.3497 56.9199 86.043 55.9453 86.043 54.0108C86.043 51.6316 83.1601 51.0809 83.1601 51.0809C83.1601 51.0809 80.7649 51.0483 80.7031 49.9761C80.674 49.4717 81.4035 49.1871 82.0462 49.1871C83.0985 49.1871 84.2739 50.1972 84.2739 50.1972L85.9447 48.4612C85.9447 48.4612 83.8307 46.8516 82.0462 46.8516C80.3422 46.8516 77.9185 47.9267 77.9185 50.1655C77.9185 52.0704 80.7241 52.9466 80.7241 52.9466C80.7241 52.9466 83.6843 53.2504 83.6843 54.1424C83.6843 54.7494 82.6107 54.9315 81.9807 54.9315C80.4511 54.9315 79.1634 53.6374 79.1634 53.6374L77.5253 55.2786Z" fill="#9C9C9C"/>
<path fill-rule="evenodd" clip-rule="evenodd" d="M279.546 38.5543H279.776C279.917 38.5543 280.019 38.5795 280.083 38.6413C280.109 38.6537 280.122 38.6665 280.134 38.6784C280.236 38.7655 280.352 38.94 280.493 39.1764L280.71 39.5493H281.171L280.89 39.0894C280.748 38.8777 280.621 38.716 280.531 38.629C280.472 38.5751 280.402 38.5329 280.326 38.5048C280.531 38.4924 280.697 38.4178 280.825 38.2932C280.953 38.1686 281.018 38.0197 281.018 37.8451C281.018 37.721 280.979 37.6088 280.902 37.5094C280.831 37.4014 280.722 37.3219 280.595 37.2853C280.493 37.2482 280.34 37.223 280.135 37.223C280.096 37.223 280.045 37.2107 279.994 37.2107H279.163V39.5489H279.546L279.546 38.5543ZM279.546 37.5341H280.134C280.249 37.5469 280.326 37.5593 280.377 37.5717C280.447 37.5909 280.506 37.6353 280.543 37.6958C280.581 37.7453 280.594 37.808 280.594 37.8827C280.596 37.9299 280.586 37.9768 280.566 38.0198C280.546 38.0629 280.516 38.1009 280.479 38.131C280.415 38.1933 280.299 38.2181 280.134 38.2309H279.545V37.5341H279.546ZM222.108 37.7957H225.562L222.108 32.1985L219.192 27.485L206.799 34.7236L208.692 37.7957H222.108ZM254.235 37.7957H271.105L260.604 20.7811L248.992 2L244.208 4.79858L236.611 9.23857L244.208 21.5397L254.235 37.7957ZM248.34 43.4052C247.15 42.6594 245.756 42.2237 244.246 42.2237H244.208C240.039 42.2485 236.65 45.5569 236.65 49.6116C236.65 53.6668 240.039 56.9748 244.208 57H244.246C245.756 57 247.15 56.5648 248.34 55.8185V56.5895H251.831V37.7961H248.34V43.4052ZM248.34 50.3831C247.969 52.249 246.268 53.6787 244.246 53.6787H244.208C241.919 53.654 240.065 51.838 240.065 49.6116C240.065 47.3857 241.919 45.5697 244.208 45.5569H244.246C246.268 45.5569 247.969 46.9752 248.34 48.8406V50.3831ZM264.736 43.4052C263.519 42.6328 262.097 42.2222 260.643 42.2237H260.604C256.435 42.2485 253.046 45.5569 253.046 49.6116C253.046 53.6668 256.435 56.9748 260.604 57H260.643C262.153 57 263.559 56.5648 264.736 55.8185V56.5895H268.228V42.5966H264.736V43.4052ZM264.736 50.3831C264.365 52.249 262.664 53.6787 260.643 53.6787H260.604C258.316 53.654 256.461 51.838 256.461 49.6116C256.461 47.3857 258.316 45.5697 260.604 45.5569H260.643C262.664 45.5569 264.365 46.9752 264.736 48.8406V50.3831ZM280.646 48.6913C280.518 48.6286 280.339 48.5667 280.134 48.492C279.354 48.2309 278.088 47.9075 276.323 47.5346C274.775 47.1983 273.995 46.7636 273.995 46.2161C273.995 45.8304 274.136 45.5194 274.404 45.2958C274.763 44.9971 275.401 44.8478 276.323 44.8478C277.256 44.8478 277.934 45.0471 278.331 45.4323C278.574 45.6687 278.752 46.0911 278.868 46.6885H282.577C282.577 44.9225 281.835 43.6539 280.377 42.8829C280.3 42.8342 280.219 42.7926 280.134 42.7588C279.123 42.2984 277.781 42.062 276.106 42.062C274.071 42.062 272.537 42.5847 271.514 43.6416C270.696 44.4872 270.3 45.5194 270.3 46.7384C270.3 48.2565 271.067 49.3505 272.627 50.0597C273.216 50.3332 274.648 50.7189 276.925 51.1916C278.447 51.5151 279.213 51.9755 279.213 52.56C279.213 52.9086 279.06 53.2068 278.728 53.4803C278.305 53.8285 277.666 54.003 276.809 54.003C275.671 54.003 274.865 53.8166 274.392 53.456C273.918 53.1079 273.675 52.598 273.675 51.9512H269.788C269.788 53.6677 270.53 54.9486 272.026 55.7938C273.216 56.453 274.776 56.7892 276.708 56.7892C277.999 56.7892 279.15 56.5776 280.135 56.1676C280.339 56.0805 280.519 55.9931 280.711 55.8936C282.233 55.0732 283 53.7671 283 51.9763C283 50.5072 282.219 49.4124 280.646 48.6913ZM209.689 43.4052C208.467 42.6343 207.041 42.224 205.584 42.2237H205.546C201.389 42.2485 198 45.5569 198 49.6116C198 53.6668 201.389 56.9748 205.546 57H205.584C207.093 57 208.5 56.5648 209.689 55.8185V56.5895H213.181V42.5966H209.689V43.4052ZM209.689 50.3831C209.319 52.249 207.617 53.6787 205.584 53.6787H205.546C203.269 53.654 201.415 51.838 201.415 49.6116C201.415 47.3857 203.269 45.5697 205.546 45.5569H205.584C207.618 45.5569 209.319 46.9752 209.689 48.8406V50.3831ZM231.483 41.1169H235.282V37.8703H231.483V41.1169ZM231.483 56.5891H235.282V42.2237H231.483V56.5891ZM226.252 43.4052C225.029 42.6343 223.604 42.2239 222.146 42.2237H222.108C217.939 42.2485 214.549 45.5569 214.549 49.6116C214.549 53.6668 217.938 56.9748 222.108 57H222.146C223.604 56.9999 225.03 56.5896 226.252 55.8185V56.5895H229.744V37.7961H226.252V43.4052ZM226.252 50.3831C225.881 52.249 224.18 53.6787 222.146 53.6787H222.108C219.819 53.654 217.964 51.838 217.964 49.6116C217.964 47.3857 219.819 45.5697 222.108 45.5569H222.146C224.18 45.5569 225.881 46.9752 226.252 48.8406V50.3831ZM248.326 37.7957L244.208 31.1045L234.092 14.7363L222.108 21.7513L221.699 21.9873L222.108 22.6465L231.47 37.7957H248.326Z" fill="#9C9C9C"/>
<path fill-rule="evenodd" clip-rule="evenodd" d="M53.4086 89C56.2394 95.3671 67.9402 100.388 77.8168 93.6529V135.469C77.8168 142.02 72.218 143 69.2609 143C58.9443 143 55.1067 147.163 53.3454 149C51.5842 147.163 47.8722 143 37.5556 143C34.5989 143 29 142.021 29 135.469V93.6533C38.8767 100.388 50.5774 95.3674 53.4086 89Z" fill="#9C9C9C"/>
<path fill-rule="evenodd" clip-rule="evenodd" d="M30.4935 99.6118H32.2043L32.7301 98.041L33.2563 99.6118H34.9625L33.5811 100.587L34.1094 102.166L32.728 101.189L31.3533 102.162L31.8795 100.589L30.4935 99.6118ZM36.3439 99.6118H38.0547L38.5808 98.041L39.1067 99.6118H40.8129L39.4315 100.587L39.9598 102.166L38.5784 101.189L37.204 102.162L37.7298 100.589L36.3439 99.6118Z" fill="white"/>
<path fill-rule="evenodd" clip-rule="evenodd" d="M36.3439 99.6118H38.0547L38.5809 98.041L39.1067 99.6118H40.8129L39.4315 100.587L39.9598 102.166L38.5784 101.189L37.204 102.162L37.7298 100.589L36.3439 99.6118ZM42.1943 99.6118H43.905L44.4312 98.041L44.957 99.6118H46.6636L45.2822 100.587L45.8102 102.166L44.4291 101.189L43.0544 102.162L43.5802 100.589L42.1943 99.6118ZM30.4935 104.938H32.2043L32.7301 103.368L33.2563 104.938H34.9625L33.5811 105.914L34.1094 107.493L32.728 106.516L31.3533 107.489L31.8795 105.916L30.4935 104.938ZM36.3439 104.938H38.0547L38.5809 103.368L39.1067 104.938H40.8129L39.4315 105.914L39.9598 107.493L38.5784 106.516L37.204 107.489L37.7298 105.916L36.3439 104.938Z" fill="white"/>
<path fill-rule="evenodd" clip-rule="evenodd" d="M36.3439 104.938H38.0547L38.5808 103.367L39.1067 104.938H40.8129L39.4315 105.913L39.9598 107.493L38.5784 106.515L37.204 107.489L37.7298 105.915L36.3439 104.938ZM30.4935 110.203H32.2043L32.7301 108.633L33.2563 110.203H34.9625L33.5811 111.179L34.1094 112.758L32.728 111.781L31.3533 112.754L31.8795 111.181L30.4935 110.203ZM36.3439 110.203H38.0547L38.5808 108.633L39.1067 110.203H40.8129L39.4315 111.179L39.9598 112.758L38.5784 111.781L37.204 112.754L37.7298 111.181L36.3439 110.203Z" fill="white"/>
<path fill-rule="evenodd" clip-rule="evenodd" d="M36.344 110.204H38.0548L38.581 108.633L39.1068 110.204H40.813L39.4316 111.179L39.9599 112.758L38.5785 111.781L37.2041 112.754L37.73 111.181L36.344 110.204ZM75.4263 114.225V134.919C75.4263 139.388 72.9729 140.674 68.5056 140.674C59.8244 140.736 55.4842 143.674 53.4083 145.572C51.3323 143.674 46.9917 140.736 38.3102 140.674C33.8436 140.674 31.3903 139.388 31.3903 134.919V114.225H75.4263ZM76.3232 99.6118H74.6124L74.0863 98.041L73.5608 99.6118H71.8542L73.2353 100.587L72.707 102.166L74.0891 101.189L75.4634 102.162L74.9373 100.589L76.3232 99.6118ZM70.4728 99.6118H68.7621L68.2359 98.041L67.7104 99.6118H66.0038L67.3849 100.587L66.857 102.166L68.238 101.189L69.6131 102.162L69.0869 100.589L70.4728 99.6118Z" fill="white"/>
<path fill-rule="evenodd" clip-rule="evenodd" d="M70.4728 99.6118H68.762L68.2358 98.041L67.7103 99.6118H66.0038L67.3848 100.587L66.8569 102.166L68.2379 101.189L69.613 102.162L69.0868 100.589L70.4728 99.6118ZM76.3231 104.938H74.6124L74.0862 103.368L73.5607 104.938H71.8542L73.2352 105.914L72.7069 107.493L74.089 106.516L75.4634 107.489L74.9372 105.916L76.3231 104.938ZM70.4728 104.938H68.762L68.2358 103.368L67.7103 104.938H66.0038L67.3848 105.914L66.8569 107.493L68.2379 106.516L69.613 107.489L69.0868 105.916L70.4728 104.938Z" fill="white"/>
<path fill-rule="evenodd" clip-rule="evenodd" d="M70.4728 104.938H68.762L68.2358 103.367L67.7103 104.938H66.0038L67.3848 105.913L66.8569 107.493L68.2379 106.515L69.613 107.489L69.0868 105.915L70.4728 104.938ZM76.3231 110.203H74.6124L74.0862 108.633L73.5607 110.203H71.8542L73.2352 111.179L72.7069 112.758L74.089 111.781L75.4634 112.754L74.9372 111.181L76.3231 110.203ZM70.4728 110.203H68.762L68.2358 108.633L67.7103 110.203H66.0038L67.3848 111.179L66.8569 112.758L68.2379 111.781L69.613 112.754L69.0868 111.181L70.4728 110.203Z" fill="white"/>
<path fill-rule="evenodd" clip-rule="evenodd" d="M70.4728 110.204H68.762L68.2359 108.633L67.7104 110.204H66.0038L67.3849 111.179L66.8569 112.758L68.238 111.781L69.613 112.754L69.0869 111.181L70.4728 110.204ZM64.6224 110.204H62.9117L62.3855 108.633L61.8593 110.204H60.1535L61.5348 111.179L61.0066 112.758L62.3876 111.781L63.7627 112.754L63.2365 111.181L64.6224 110.204ZM51.3162 94.3462H53.0269L53.5528 92.7754L54.0786 94.3462H55.7851L54.4041 95.3216L54.9313 96.9009L53.5507 95.9234L52.1759 96.8964L52.7018 95.3236L51.3162 94.3462Z" fill="white"/>
<path fill-rule="evenodd" clip-rule="evenodd" d="M49.697 136.94C49.697 137.337 49.697 138.287 49.0681 138.593C48.4391 138.899 48.3132 139.297 48.376 139.542C48.4388 139.786 48.7218 140.062 49.2252 140.215C49.7286 140.368 50.6722 140.675 53.4715 142.664C53.9745 142.97 54.4782 142.786 54.635 142.603C54.7925 142.42 54.8557 141.899 54.4466 141.439C54.0008 140.939 53.5346 140.154 53.5346 138.991V127.572H56.3966C57.0887 127.572 57.7805 127.756 58.0011 128.919C58.1895 129.684 59.2906 129.807 59.2906 128.98V122.827C59.2906 122.154 58.0636 122.215 57.9068 122.889C57.7493 123.562 57.7177 124.757 56.7741 124.757H53.5346V118.572H57.0572C57.5921 118.572 58.1267 118.756 58.441 119.184C58.756 119.613 59.7312 120.746 60.3917 120.47C60.706 120.348 60.8632 120.041 60.706 119.46L59.2275 115.572H49.0681C48.4391 115.572 48.1245 115.787 48.0613 116.062C47.9985 116.338 48.1873 116.858 48.6275 117.072C49.0677 117.287 49.697 117.715 49.697 118.695V136.94Z" fill="#9C9C9C"/>
<path fill-rule="evenodd" clip-rule="evenodd" d="M62.3413 134.337C62.3413 134.765 62.3413 135.806 61.7124 136.296C61.0834 136.786 59.5417 138.194 60.2022 139.051C60.4545 139.387 61.1462 139.296 62.0267 138.99C62.9078 138.684 65.4865 138.592 66.4301 138.623C67.374 138.653 71.8406 139.449 73.6018 134.306C74.7657 130.755 73.1297 126.561 69.859 126.499C68.003 126.469 67.0909 127.388 66.9334 128.704C66.7759 130.02 67.8767 131.979 70.2364 131.612C70.8969 131.49 71.0537 131.704 71.0537 132.225C71.0537 132.745 70.8654 135.898 67.783 135.898C67.2793 135.898 66.5244 135.929 66.1786 135.929V119.122C66.1786 118.326 67.1534 117.224 67.8146 116.796C68.3176 116.49 68.2861 115.571 67.6887 115.571H60.9575C60.5169 115.571 60.077 116.061 60.706 116.704C61.3349 117.347 62.3413 117.836 62.3413 119.245V134.337ZM74.5584 144.755H76.4649V145.029H75.6704V147.041H75.353V145.029H74.5584V144.755ZM78.6924 147.041V145.691C78.6924 145.624 78.6994 145.335 78.6994 145.121H78.6924L78.0319 147.041H77.7176L77.0571 145.125H77.05C77.05 145.335 77.0571 145.624 77.0571 145.691V147.041H76.7494V144.756H77.2044L77.8751 146.688H77.8814L78.5486 144.756H79V147.041H78.6924ZM33.4353 115.571C32.9635 115.571 32.4917 115.786 32.3974 116.183C32.3181 116.517 32.3974 117.041 32.9007 117.255C33.4041 117.469 34.159 117.898 34.159 119.031V132.684C34.159 133.204 34.0959 133.939 33.3725 133.847C32.6492 133.755 32.4602 134.092 32.4289 134.306C32.3974 134.521 32.5233 135.96 34.5992 137.276C35.2913 137.704 37.2413 138.96 38.0278 138.347C38.4052 138.071 37.9962 136.755 37.6188 136.327C37.2413 135.898 36.9898 135.378 36.9898 134.643V123.928L42.4 137.674C42.7774 138.592 43.9725 139.48 44.8533 139.204C45.7342 138.928 45.8601 138.255 45.8601 137.704V118.694C45.8601 118.143 45.8913 117.653 46.9924 117.071C47.5586 116.827 47.7789 115.571 46.7725 115.571H41.1424C40.4819 115.571 40.0413 116.367 40.6706 116.857C41.2996 117.347 42.5894 117.959 42.5894 118.97V127.817L38.3733 117.133C38.0274 116.306 37.4297 115.572 36.7692 115.572L33.4353 115.571Z" fill="#9C9C9C"/>
<path fill-rule="evenodd" clip-rule="evenodd" d="M49.1308 107.062L49.4451 107.796L45.0102 109.541C46.7715 111.837 52.0244 112.296 55.7357 110.399C59.3004 108.576 61.6805 106.266 62.1526 102.837L57.7485 104.536L57.4655 103.832L61.8064 102.103C61.2083 101.185 56.6166 99.0415 51.332 101.154C46.488 102.838 44.5696 107.062 44.664 108.807L49.1308 107.062Z" fill="white"/>
<path fill-rule="evenodd" clip-rule="evenodd" d="M50.4754 107.839C50.5422 107.812 50.5955 107.761 50.6236 107.697C50.6518 107.632 50.6525 107.559 50.6255 107.494L50.2242 106.529C50.2109 106.496 50.1911 106.467 50.1661 106.442C50.141 106.418 50.1112 106.398 50.0784 106.384C50.0455 106.371 50.0102 106.364 49.9745 106.363C49.9388 106.363 49.9034 106.37 49.8703 106.383L49.8096 106.397C49.7428 106.424 49.6895 106.475 49.6614 106.539C49.6332 106.604 49.6326 106.677 49.6595 106.742L50.0608 107.708C50.0878 107.773 50.1402 107.824 50.2065 107.852C50.2728 107.879 50.3476 107.88 50.4144 107.854L50.4754 107.839ZM51.4348 107.471C51.4679 107.458 51.498 107.439 51.5235 107.415C51.5489 107.39 51.5692 107.361 51.5831 107.33C51.5971 107.298 51.6044 107.263 51.6047 107.229C51.605 107.194 51.5983 107.159 51.5849 107.127L51.1836 106.161C51.1566 106.096 51.1042 106.045 51.0379 106.017C50.9716 105.99 50.8969 105.989 50.8301 106.015L50.769 106.03C50.7359 106.043 50.7058 106.062 50.6803 106.087C50.6549 106.111 50.6346 106.14 50.6206 106.172C50.6067 106.204 50.5994 106.238 50.5991 106.273C50.5988 106.308 50.6055 106.342 50.6189 106.374L51.0202 107.34C51.0336 107.372 51.0533 107.402 51.0784 107.427C51.1034 107.451 51.1332 107.471 51.1661 107.485C51.1989 107.498 51.2342 107.505 51.2699 107.506C51.3056 107.506 51.341 107.499 51.3741 107.486L51.4348 107.471ZM52.3942 107.104C52.461 107.078 52.5143 107.027 52.5424 106.962C52.5706 106.898 52.5713 106.825 52.5443 106.76L52.143 105.794C52.1159 105.729 52.0635 105.677 51.9971 105.65C51.9308 105.622 51.8559 105.622 51.7891 105.648L51.7284 105.663C51.6953 105.676 51.6652 105.695 51.6397 105.719C51.6143 105.743 51.594 105.772 51.5801 105.804C51.5661 105.836 51.5588 105.871 51.5585 105.905C51.5582 105.94 51.5649 105.975 51.5783 106.007L51.9796 106.973C52.0066 107.037 52.059 107.089 52.1253 107.117C52.1916 107.144 52.2664 107.145 52.3332 107.119L52.3942 107.104ZM53.3532 106.737C53.42 106.71 53.4733 106.659 53.5015 106.595C53.5296 106.53 53.5303 106.458 53.5034 106.392L53.1024 105.427C53.0754 105.362 53.023 105.31 52.9567 105.282C52.8904 105.255 52.8156 105.254 52.7488 105.281L52.6882 105.295C52.6551 105.308 52.6249 105.327 52.5995 105.352C52.574 105.376 52.5537 105.405 52.5398 105.437C52.5258 105.469 52.5185 105.504 52.5182 105.538C52.5179 105.573 52.5246 105.607 52.538 105.64L52.9393 106.606C52.9664 106.671 53.0189 106.722 53.0852 106.75C53.1516 106.777 53.2264 106.778 53.2933 106.752L53.3532 106.737ZM54.3123 106.369C54.3454 106.356 54.3757 106.337 54.4012 106.313C54.4267 106.288 54.4471 106.259 54.4611 106.227C54.4751 106.195 54.4825 106.161 54.4828 106.126C54.4832 106.092 54.4765 106.057 54.4631 106.025L54.0615 105.059C54.0344 104.994 53.982 104.942 53.9157 104.915C53.8494 104.887 53.7747 104.887 53.7079 104.913L53.6472 104.928C53.6141 104.941 53.584 104.96 53.5585 104.984C53.5331 105.009 53.5128 105.038 53.4989 105.07C53.4849 105.102 53.4776 105.136 53.4773 105.171C53.477 105.205 53.4837 105.24 53.4971 105.272L53.8987 106.238C53.9257 106.303 53.9781 106.355 54.0444 106.382C54.1107 106.41 54.1855 106.41 54.2523 106.384L54.3123 106.369ZM55.272 106.002C55.3388 105.976 55.3921 105.924 55.4203 105.86C55.4484 105.795 55.4491 105.723 55.4222 105.657L55.0205 104.692C54.9935 104.627 54.9411 104.575 54.8748 104.547C54.8085 104.52 54.7337 104.519 54.6669 104.546L54.6059 104.56C54.5391 104.587 54.4858 104.638 54.4577 104.702C54.4295 104.767 54.4288 104.839 54.4558 104.904L54.8574 105.87C54.8707 105.902 54.8904 105.932 54.9154 105.957C54.9404 105.981 54.9702 106.001 55.003 106.015C55.0358 106.028 55.0711 106.036 55.1068 106.036C55.1425 106.036 55.1779 106.03 55.211 106.017L55.272 106.002ZM56.2314 105.635C56.2982 105.608 56.3515 105.557 56.3797 105.493C56.4078 105.428 56.4085 105.355 56.3816 105.29L55.9806 104.324C55.9534 104.259 55.9009 104.207 55.8345 104.18C55.7681 104.153 55.6932 104.152 55.6263 104.178L55.566 104.193C55.5328 104.206 55.5026 104.225 55.4771 104.249C55.4515 104.274 55.4312 104.303 55.4172 104.335C55.4032 104.367 55.3958 104.401 55.3954 104.436C55.3951 104.471 55.4018 104.505 55.4151 104.537L55.8168 105.503C55.8301 105.535 55.8499 105.565 55.8749 105.589C55.8999 105.614 55.9296 105.634 55.9625 105.648C55.9953 105.661 56.0306 105.668 56.0663 105.669C56.1019 105.669 56.1373 105.662 56.1704 105.649L56.2314 105.635ZM57.1905 105.267C57.2236 105.254 57.2539 105.235 57.2794 105.211C57.305 105.186 57.3253 105.157 57.3392 105.125C57.3532 105.093 57.3605 105.059 57.3607 105.024C57.361 104.989 57.3541 104.955 57.3406 104.923L56.9397 103.957C56.9126 103.892 56.8602 103.84 56.7939 103.813C56.7276 103.786 56.6529 103.785 56.5861 103.811L56.525 103.826C56.4583 103.852 56.405 103.903 56.3768 103.968C56.3487 104.032 56.348 104.105 56.3749 104.17L56.7758 105.136C56.7892 105.168 56.809 105.197 56.8341 105.222C56.8591 105.247 56.8889 105.267 56.9219 105.28C56.9548 105.294 56.9901 105.301 57.0258 105.301C57.0616 105.302 57.097 105.295 57.1301 105.282L57.1905 105.267Z" fill="#9C9C9C"/>
<path fill-rule="evenodd" clip-rule="evenodd" d="M62.0986 101.377L62.3877 101.189L63.7627 102.162L63.2366 100.589L64.6225 99.6118H62.9117L62.3856 98.041L61.8594 99.6118H60.1535L61.5349 100.587L61.4458 100.932C61.6601 101.059 61.8881 101.228 62.0986 101.377ZM55.988 99.5889L56.5355 98.0414L57.1084 99.6275C56.7357 99.5981 56.3618 99.5852 55.988 99.5889ZM49.1621 101.409L49.4308 100.59L48.0448 99.6121H49.7556L50.2818 98.0414L50.8076 99.6121H52.5138L51.164 100.526C50.1804 100.873 49.4297 101.254 49.1621 101.409ZM45.3091 104.954L44.9572 104.938L44.4314 103.368L43.9052 104.938H42.1944L43.5804 105.916L43.0546 107.489L44.4763 106.531C44.6826 106.039 44.952 105.489 45.3091 104.954ZM45.5609 110.988L45.2824 111.179L45.8103 112.758L44.4289 111.781L43.0542 112.754L43.58 111.181L42.1941 110.204H43.9049L44.0978 109.542C44.4128 110.276 44.979 110.613 45.5609 110.988ZM51.5046 112.179L51.661 112.758L50.8655 112.219C51.0356 112.209 51.3362 112.196 51.5046 112.179ZM49.7124 112.225L48.9049 112.754L49.1 112.17C49.309 112.188 49.5023 112.218 49.7124 112.225ZM55.6782 111.138L55.6845 111.179L55.1563 112.758L56.5376 111.781L57.912 112.754L57.3865 111.181L58.7718 110.204L57.3736 110.195C57.3469 110.212 57.2255 110.305 57.1989 110.323C56.7153 110.634 56.2068 110.907 55.6782 111.138ZM62.5722 103.931L62.9121 104.938H64.6229L63.2369 105.916L63.7631 107.489L62.388 106.515L61.0066 107.493L61.1778 106.923C61.932 105.791 62.4199 104.781 62.5722 103.931Z" fill="white"/>
<path d="M201.09 126.95C199.239 126.95 198.349 125.284 198.812 123.355C199.773 119.358 205.941 113.436 210.144 113.436C213.213 113.436 212.977 116.645 211.181 119.384L210.187 120.67C206.624 124.764 203.32 126.95 201.09 126.95ZM216.115 100C210.751 100.003 204.841 103.844 201.133 107.483L201.425 107.979C207.182 103.255 215.174 100.182 217.377 104.79C218.54 107.223 216.565 112.132 213.784 116.013C214.451 114.299 214.011 111.008 210.135 111.008C203.687 111.008 191 121.002 191 131.228C191 135.326 193.428 138 197.426 138C208.133 138 222.655 117.459 222.655 107.142C222.655 103.498 220.863 100 216.115 100ZM229.899 126.95C229.277 126.95 228.758 126.694 228.434 126.232C228.095 125.744 227.995 125.055 228.156 124.341C228.51 122.792 229.936 121.579 231.4 121.579H234.845L233.615 126.951L229.899 126.95ZM239.805 110.844C238.818 109.426 237.224 108.792 236.081 108.792H229.819L228.755 113.432H234.661L235.226 113.502C235.232 113.502 235.77 113.575 236.067 114.047C236.31 114.44 236.344 115.027 236.171 115.793L235.891 117.013H232.171C228.968 117.013 224.504 119.701 223.51 124.044C223.015 126.211 223.448 128.087 224.41 129.466C225.365 130.834 227.164 131.587 229.109 131.587H232.554L232.553 131.588H236.934L238.987 122.61L240.5 116.01C241.093 113.418 240.45 111.769 239.805 110.844ZM282.817 108.792C281.123 108.792 279.55 109.379 278.269 110.49C276.976 111.611 276.263 112.959 275.838 114.815C274.918 118.838 277.617 120.779 279.79 122.155C281.347 123.143 282.692 123.995 282.402 125.257C282.195 126.163 281.858 126.955 279.942 126.955H274.095L273.033 131.595H279.504C281.24 131.595 282.842 131.171 284.132 130.012C285.425 128.849 286.154 127.227 286.606 125.249C287.039 123.366 286.745 121.568 285.712 120.224C284.85 119.099 283.607 118.316 282.513 117.624C281.112 116.741 279.791 115.908 280.023 114.898C280.162 114.289 280.683 113.436 281.813 113.436H287.499L288.562 108.796H282.815V108.792H282.817ZM248.883 108.792C247.189 108.792 245.616 109.379 244.335 110.49C243.042 111.611 242.33 112.959 241.902 114.815C240.981 118.838 243.684 120.779 245.855 122.155C247.412 123.143 248.758 123.995 248.468 125.257C248.26 126.163 247.923 126.955 246.007 126.955H240.162L239.099 131.595H245.57C247.307 131.595 248.909 131.171 250.198 130.012C251.492 128.849 252.22 127.227 252.672 125.249C253.105 123.366 252.81 121.568 251.779 120.224C250.918 119.099 249.673 118.316 248.578 117.624C247.178 116.741 245.857 115.908 246.089 114.898C246.228 114.289 246.749 113.436 247.878 113.436H253.562L254.626 108.796H248.882L248.883 108.792ZM257.714 108.792L252.638 131.591H256.926L261.999 108.792H257.714ZM273.409 108.792C265.859 108.824 261.909 114.709 260.654 120.191C259.166 126.692 262.123 131.592 267.53 131.592H271.154L272.216 126.951H268.594C266.57 126.951 263.786 125.086 264.908 120.191C265.799 116.299 269.039 113.432 272.598 113.432H274.897L275.961 108.792H273.409ZM288.263 130.549H288.637V129.563H288.936C289.136 129.563 289.276 129.588 289.353 129.642C289.488 129.735 289.557 129.928 289.557 130.217V130.416L289.564 130.496C289.567 130.508 289.567 130.517 289.57 130.526L289.575 130.549H289.928L289.915 130.518C289.903 130.476 289.897 130.432 289.897 130.388C289.893 130.326 289.891 130.263 289.891 130.201V130.018C289.887 129.878 289.846 129.742 289.775 129.63C289.697 129.497 289.574 129.415 289.406 129.383C289.537 129.36 289.641 129.322 289.716 129.261C289.856 129.155 289.925 128.993 289.925 128.768C289.925 128.454 289.815 128.243 289.595 128.134C289.47 128.075 289.276 128.047 289.01 128.047H288.263V130.549ZM289.337 129.2C289.259 129.236 289.139 129.255 288.979 129.255H288.638V128.349H288.959C289.168 128.349 289.32 128.379 289.415 128.441C289.511 128.503 289.558 128.625 289.558 128.808C289.558 129.001 289.484 129.131 289.337 129.2ZM290.429 127.696C290.249 127.481 290.033 127.312 289.796 127.198C289.558 127.084 289.303 127.027 289.045 127.032C288.511 127.032 288.052 127.254 287.673 127.696C287.489 127.904 287.344 128.154 287.246 128.431C287.148 128.707 287.1 129.004 287.104 129.303C287.104 129.938 287.292 130.478 287.669 130.922C288.047 131.368 288.507 131.592 289.047 131.592C289.587 131.592 290.048 131.368 290.428 130.922C290.809 130.475 291 129.936 291 129.303C291 128.675 290.81 128.138 290.429 127.696ZM290.234 127.917C290.562 128.3 290.725 128.762 290.725 129.303C290.725 129.849 290.562 130.315 290.234 130.7C289.91 131.085 289.513 131.279 289.048 131.279C288.583 131.279 288.189 131.086 287.861 130.7C287.703 130.518 287.579 130.3 287.496 130.059C287.412 129.819 287.371 129.562 287.375 129.303C287.375 128.761 287.539 128.3 287.863 127.917C288.016 127.731 288.2 127.584 288.404 127.484C288.607 127.385 288.826 127.336 289.047 127.339C289.268 127.335 289.487 127.384 289.692 127.484C289.896 127.583 290.08 127.731 290.234 127.917Z" fill="#9C9C9C"/>
</svg>
