<svg width="5" height="5" viewBox="0 0 5 5" fill="none" xmlns="http://www.w3.org/2000/svg">
<path d="M2.55119 0.0341797C1.30827 0.0341797 0.183609 0.813691 0.183609 2.01942C0.183609 2.78934 0.908763 3.69495 2.35588 4.73827C2.41056 4.77687 2.48038 4.79811 2.55261 4.79811C2.62484 4.79811 2.69466 4.77687 2.74935 4.73827C4.19362 3.69495 4.91877 2.78934 4.91877 2.01942C4.91877 0.813691 3.79411 0.0341797 2.55119 0.0341797ZM2.55119 2.45523C2.22555 2.45523 1.95921 2.23732 1.95921 1.9709C1.95921 1.70448 2.22555 1.48657 2.55119 1.48657C2.87684 1.48657 3.14318 1.70448 3.14318 1.9709C3.14318 2.23732 2.87684 2.45523 2.55119 2.45523Z" fill="#E3E3E3"/>
</svg>
